<svg width="1283" height="890" xmlns="http://www.w3.org/2000/svg" xmlns:xlink="http://www.w3.org/1999/xlink" overflow="hidden"><defs><clipPath id="clip0"><path d="M-55-155 1228-155 1228 735-55 735Z" fill-rule="evenodd" clip-rule="evenodd"/></clipPath></defs><g clip-path="url(#clip0)" transform="translate(55 155)"><rect x="-52.5001" y="377.5" width="348" height="356" stroke="#2F528F" stroke-miterlimit="8" fill="#003D59"/><text fill="#FFFFFF" font-family="Calibri,Calibri_MSFontService,sans-serif" font-weight="400" font-size="37" transform="translate(-17.2202 568)">Archive <tspan x="121.587" y="0">or destroy</tspan></text><rect x="412.5" y="377.5" width="349" height="356" stroke="#2F528F" stroke-miterlimit="8" fill="#003D59"/><text fill="#FFFFFF" font-family="Calibri,Calibri_MSFontService,sans-serif" font-weight="400" font-size="37" transform="translate(451.798 568)">Share and publish</text><rect x="878.5" y="377.5" width="349" height="356" stroke="#2F528F" stroke-miterlimit="8" fill="#003D59"/><text fill="#FFFFFF" font-family="Calibri,Calibri_MSFontService,sans-serif" font-weight="400" font-size="37" transform="translate(929.211 568)">Use and process</text><rect x="878.5" y="-152.5" width="349" height="356" stroke="#2F528F" stroke-miterlimit="8" fill="#003D59"/><text fill="#FFFFFF" font-family="Calibri,Calibri_MSFontService,sans-serif" font-weight="400" font-size="37" transform="translate(912.993 15)">Prepare, store and <tspan x="72.9333" y="45">maintain</tspan></text><rect x="413.5" y="-152.5" width="348" height="356" stroke="#2F528F" stroke-miterlimit="8" fill="#003D59"/><text fill="#FFFFFF" font-family="Calibri,Calibri_MSFontService,sans-serif" font-weight="400" font-size="37" transform="translate(437.215 15)">Collect, acquire and <tspan x="104.367" y="45">ingest</tspan></text><rect x="-52.5001" y="-152.5" width="348" height="356" stroke="#2F528F" stroke-miterlimit="8" fill="#003D59"/><text fill="#FFFFFF" font-family="Calibri,Calibri_MSFontService,sans-serif" font-weight="400" font-size="37" transform="translate(88.2967 38)">Plan</text><path d="M320.5 11 359.5 11 359.5-3.50005 388.5 25.5 359.5 54.5 359.5 40.0001 320.5 40.0001Z" stroke="#003D59" stroke-miterlimit="8" fill="#003D59" fill-rule="evenodd"/><path d="M388.5 570 349.5 570 349.5 584.5 320.5 555.5 349.5 526.5 349.5 541 388.5 541Z" stroke="#003D59" stroke-miterlimit="8" fill="#003D59" fill-rule="evenodd"/><path d="M786.5 14.7501 825 14.7501 825 0.500053 853.5 29.0001 825 57.5001 825 43.2501 786.5 43.2501Z" stroke="#003D59" stroke-miterlimit="8" fill="#003D59" fill-rule="evenodd"/><path d="M853.5 570 815.5 570 815.5 584.5 786.5 555.5 815.5 526.5 815.5 541 853.5 541Z" stroke="#003D59" stroke-miterlimit="8" fill="#003D59" fill-rule="evenodd"/><path d="M1067.25 256.5 1067.25 296 1081.5 296 1053 324.5 1024.5 296 1038.75 296 1038.75 256.5Z" stroke="#003D59" stroke-miterlimit="8" fill="#003D59" fill-rule="evenodd"/></g></svg>